Coordinates
version=1
nRows=6
nColumns=36
inDegrees=yes

Units are S.I. units (second, meters, Newtons, ...)
If the header above contains a line with 'inDegrees', this indicates whether rotational values are in degrees (yes) or radians (no).

endheader
time	pelvis_tilt	pelvis_list	pelvis_rotation	pelvis_tx	pelvis_ty	pelvis_tz	hip_flexion_r	hip_adduction_r	hip_rotation_r	knee_angle_r	knee_angle_r_beta	ankle_angle_r	subtalar_angle_r	mtp_angle_r	hip_flexion_l	hip_adduction_l	hip_rotation_l	knee_angle_l	knee_angle_l_beta	ankle_angle_l	subtalar_angle_l	mtp_angle_l	lumbar_extension	lumbar_bending	lumbar_rotation	arm_flex_r	arm_add_r	arm_rot_r	elbow_flex_r	pro_sup_r	arm_flex_l	arm_add_l	arm_rot_l	elbow_flex_l	pro_sup_l
     14.81666670	      4.80495084	      2.70937366	    179.22058981	      0.48078923	      0.87410640	      0.78889404	     32.62012252	     -4.07962462	     -1.45406310	     77.08679440	      1.34541837	     -6.60271991	    -12.31322988	     -7.49999987	     18.44988035	      1.00749311	      1.63345196	     17.93473122	      0.31302011	    -10.08796659	     -7.04747331	     -7.49999987	     -7.05978890	      3.11955639	     -0.18226280	     12.73984763	    -14.16793401	     -4.89767725	     19.71270297	     84.52432280	     17.30923772	     -8.25386190	   -365.97124740	     16.74741178	     99.01219983
     14.83333330	      5.41099564	      2.45009682	    179.99168432	      0.48307338	      0.87732116	      0.79081418	     34.39919063	     -4.67517639	     -1.94037653	     73.03155593	      1.27464111	     -7.99658604	    -11.95017895	     -7.49999987	     18.23494700	      1.53394721	      1.98699574	     17.74586993	      0.30972386	    -11.17447905	     -7.16106334	     -7.49999987	     -7.05633693	      3.17857599	     -1.15523347	     11.91896404	    -13.87378889	     -4.95770791	     19.41022438	     83.21640346	     18.80560842	     -8.82604262	   -363.95597344	     17.74518068	     96.62238266
     14.85000000	      5.76837464	      1.46283191	    180.64504671	      0.48675529	      0.88118533	      0.79186828	     35.80211225	     -5.98524476	     -1.84783625	     68.43439499	      1.19440551	     -9.34208961	    -12.40843295	     -7.49999987	     18.35276968	      2.71329250	      1.86121812	     19.68609072	      0.34358710	    -10.24767407	     -7.79947835	     -7.49999987	     -7.29008596	      2.36121671	     -2.38083945	     11.41830855	    -13.12927644	     -5.04103823	     18.68891911	     82.11875242	     20.26200676	     -9.93784007	   -362.17043427	     18.78821435	     94.16861258
     14.86666670	      5.91124968	      0.28145599	    181.19923381	      0.49126023	      0.88551282	      0.79153246	     36.49638976	     -7.31342206	     -1.74062122	     62.72946296	      1.09483567	    -10.52346075	    -13.49104754	     -7.49999987	     18.45943808	      3.98148507	      1.32575500	     22.56685632	      0.39386594	     -7.71436596	     -8.50166216	     -7.49999987	     -7.93691491	      1.28810567	     -3.74689952	     10.76666149	    -12.17850826	     -5.36218437	     18.28107340	     83.57609778	     21.31764413	    -11.20108136	   -361.90783792	     20.59742743	     92.02592023
     14.88333330	      6.35088037	     -0.72875929	    181.66518344	      0.49477916	      0.88853459	      0.79005345	     36.87611427	     -8.22632448	     -1.95821108	     55.91774968	      0.97594884	    -11.36049448	    -14.17268707	     -7.49999987	     18.33803999	      4.96969255	      0.57334922	     24.25714150	      0.42336699	     -5.12841847	     -8.64325305	     -7.49999987	     -8.14161404	      0.27652939	     -4.85878295	      9.71437144	    -11.22005799	     -5.87841713	     17.78952932	     84.48343040	     22.23740305	    -12.26925613	   -362.24285421	     21.85378467	     90.96922633
     14.90000000	      7.31659958	     -1.43417145	    182.16369798	      0.49586477	      0.88857184	      0.78866491	     37.10202346	     -8.69558309	     -2.51511006	     48.43351933	      0.84532438	    -11.63748360	    -13.09644287	     -7.49999987	     17.81708137	      5.61835311	     -0.02702003	     23.57275567	      0.41142220	     -3.65523467	     -8.04715557	     -7.49999987	     -7.18397270	     -0.43303911	     -5.87558544	      8.37129968	    -10.35380075	     -6.50426935	     16.37387742	     84.99570764	     23.00270786	    -13.23611668	   -362.16184756	     22.03741551	     90.63930067
